<svg width="16" height="16" viewBox="0 0 16 16" xmlns="http://www.w3.org/2000/svg">
    <g id="&#228;&#184;&#154;&#231;&#187;&#169;&#231;&#187;&#180;&#230;&#138;&#164;">
        <rect id="Rectangle 943" opacity="0.01" width="16" height="16"/>
        <path id="Vector (Stroke)" fill-rule="evenodd" clip-rule="evenodd"
              d="M3.25 2C3.25 1.58579 3.58579 1.25 4 1.25H12C12.4142 1.25 12.75 1.58579 12.75 2V7.52C12.75 9.95705 10.4366 11.75 8 11.75H7.86667C5.3954 11.75 3.25 9.92659 3.25 7.52V2ZM4.75 2.75V7.52C4.75 8.95341 6.07126 10.25 7.86667 10.25H8C9.83005 10.25 11.25 8.92295 11.25 7.52V2.75H4.75Z"/>
        <path id="Vector (Stroke)_2" fill-rule="evenodd" clip-rule="evenodd"
              d="M8 10.25C8.41421 10.25 8.75 10.5858 8.75 11V13.25H11C11.4142 13.25 11.75 13.5858 11.75 14C11.75 14.4142 11.4142 14.75 11 14.75H5C4.58579 14.75 4.25 14.4142 4.25 14C4.25 13.5858 4.58579 13.25 5 13.25H7.25V11C7.25 10.5858 7.58579 10.25 8 10.25Z"/>
        <path id="Vector (Stroke)_3" fill-rule="evenodd" clip-rule="evenodd"
              d="M15.75 4H15C15.75 4 15.75 4.00038 15.75 4.00077L15.75 4.00161L15.75 4.0035L15.75 4.00813L15.7498 4.02071C15.7497 4.03054 15.7494 4.04326 15.7489 4.05868C15.7478 4.0895 15.7459 4.13123 15.7422 4.18235C15.735 4.28432 15.7207 4.42509 15.6929 4.59205C15.6379 4.92242 15.5263 5.37438 15.2958 5.83541C15.0638 6.29939 14.7041 6.78617 14.1504 7.15529C13.592 7.52754 12.8812 7.75 12 7.75C11.5858 7.75 11.25 7.41422 11.25 7V4.375C11.25 3.99676 11.5317 3.67771 11.907 3.6308L14.907 3.2558C15.1204 3.22911 15.3351 3.29538 15.4964 3.43775C15.6576 3.58011 15.75 3.78488 15.75 4ZM14.0785 4.87102C14.0441 4.96798 14.0031 5.06681 13.9542 5.16459C13.8112 5.45062 13.6084 5.71383 13.3183 5.90722C13.1682 6.0073 12.9825 6.09694 12.75 6.15944V5.03709L14.0785 4.87102Z"/>
        <path id="Vector (Stroke)_4" fill-rule="evenodd" clip-rule="evenodd"
              d="M0.503648 3.43775C0.664921 3.29538 0.879564 3.22911 1.09303 3.2558L4.09303 3.6308C4.46835 3.67771 4.75 3.99676 4.75 4.375V7C4.75 7.41422 4.41421 7.75 4 7.75C3.11876 7.75 2.40797 7.52754 1.8496 7.15529C1.29592 6.78617 0.936166 6.29939 0.70418 5.83541C0.473662 5.37438 0.362141 4.92242 0.30708 4.59205C0.279253 4.42509 0.265049 4.28432 0.257765 4.18235C0.254114 4.13123 0.252176 4.0895 0.251149 4.05868C0.250635 4.04326 0.250348 4.03054 0.250189 4.02071L0.250035 4.00813L0.250007 4.0035L0.250002 4.00161L0.25 4.00077C0.25 4.00038 0.25 4 1 4H0.25C0.25 3.78488 0.342375 3.58011 0.503648 3.43775ZM1.92147 4.87102C1.95588 4.96798 1.99693 5.06681 2.04582 5.16459C2.18883 5.45062 2.39158 5.71383 2.68165 5.90722C2.83177 6.0073 3.01755 6.09694 3.25 6.15944V5.03709L1.92147 4.87102Z"/>
    </g>
</svg>
