<svg width="16" height="16" viewBox="0 0 16 16" xmlns="http://www.w3.org/2000/svg">
    <g id="&#228;&#188;&#129;&#228;&#184;&#154;&#232;&#175;&#129;&#228;&#185;&#166;">
        <path id="Vector (Stroke)" fill-rule="evenodd" clip-rule="evenodd"
              d="M3 1.75C2.86193 1.75 2.75 1.86193 2.75 2V15C2.75 15.4142 2.41421 15.75 2 15.75C1.58579 15.75 1.25 15.4142 1.25 15V2C1.25 1.0335 2.0335 0.25 3 0.25H13C13.9665 0.25 14.75 1.0335 14.75 2V15C14.75 15.4142 14.4142 15.75 14 15.75C13.5858 15.75 13.25 15.4142 13.25 15V2C13.25 1.86193 13.1381 1.75 13 1.75H3Z"/>
        <path id="Vector (Stroke)_2" fill-rule="evenodd" clip-rule="evenodd"
              d="M7.91906 2.8217C8.19614 2.81403 8.45486 2.95981 8.59183 3.20079L9.48945 4.77993C9.5031 4.79084 9.51585 4.80043 9.52932 4.80991C9.54636 4.8219 9.56675 4.83515 9.59255 4.84963L11.5057 5.04762C11.8075 5.07885 12.0607 5.28881 12.1473 5.57957C12.2339 5.87034 12.1368 6.18464 11.9013 6.37587L10.5126 7.50343L10.8406 9.13817C10.8963 9.41579 10.7909 9.70112 10.5681 9.87585C10.3452 10.0506 10.043 10.085 9.78668 9.96469L8.05786 9.15364L6.19664 9.97223C5.94045 10.0849 5.64283 10.0456 5.42472 9.87019C5.20661 9.69481 5.10429 9.41258 5.15935 9.13817L5.48731 7.50343L4.09863 6.37587C3.8631 6.18464 3.76599 5.87034 3.85258 5.57957C3.93917 5.28881 4.19241 5.07885 4.49418 5.04762L6.46962 4.84319L7.26828 3.23742C7.39172 2.98923 7.64198 2.82937 7.91906 2.8217ZM7.98396 5.16679L7.76923 5.59853C7.76307 5.61092 7.75656 5.62313 7.74973 5.63516C7.66889 5.77737 7.54258 5.96909 7.33383 6.11598C7.12035 6.26621 6.88713 6.32459 6.66168 6.33132L6.45035 6.35319L6.60805 6.48124C6.61571 6.48746 6.62324 6.49382 6.63065 6.50034C6.805 6.6537 6.92065 6.84379 6.97189 7.06915C7.00665 7.22202 7.006 7.38267 7.00565 7.46627C7.00562 7.47373 7.0056 7.48058 7.0056 7.48676C7.0056 7.53629 7.00069 7.58571 6.99094 7.63428L6.91395 8.01808L7.44604 7.78406C7.65332 7.65084 7.88174 7.60977 8.06011 7.60977C8.2414 7.60977 8.47439 7.6522 8.68436 7.79069L9.07733 7.97505L9.00897 7.63428C8.99923 7.58571 8.99432 7.53629 8.99432 7.48676C8.99432 7.48449 8.99431 7.48202 8.99431 7.47933C8.99423 7.4249 8.99402 7.28565 9.02247 7.1355C9.05031 6.98852 9.12582 6.71448 9.36927 6.50034C9.37667 6.49382 9.3842 6.48746 9.39186 6.48124L9.54956 6.35319L9.30621 6.32801C9.22866 6.31998 9.15284 6.29992 9.08147 6.26853C8.73464 6.11599 8.54547 5.9496 8.40686 5.82767C8.34431 5.77265 8.29136 5.70759 8.25019 5.63516L7.98396 5.16679Z"/>
        <path id="Vector (Stroke)_3" fill-rule="evenodd" clip-rule="evenodd"
              d="M5.25 12C5.25 11.5858 5.58579 11.25 6 11.25H10C10.4142 11.25 10.75 11.5858 10.75 12C10.75 12.4142 10.4142 12.75 10 12.75H6C5.58579 12.75 5.25 12.4142 5.25 12Z"/>
        <path id="Vector (Stroke)_4" fill-rule="evenodd" clip-rule="evenodd"
              d="M3.25 15C3.25 14.5858 3.58579 14.25 4 14.25H12C12.4142 14.25 12.75 14.5858 12.75 15C12.75 15.4142 12.4142 15.75 12 15.75H4C3.58579 15.75 3.25 15.4142 3.25 15Z"/>
    </g>
</svg>
