<svg width="16" height="16" viewBox="0 0 16 16" xmlns="http://www.w3.org/2000/svg">
    <g id="&#231;&#164;&#190;&#228;&#191;&#157;&#228;&#191;&#161;&#230;&#129;&#175;">
        <rect id="Rectangle 944" opacity="0.01" width="16" height="16"/>
        <path id="Vector (Stroke)" fill-rule="evenodd" clip-rule="evenodd"
              d="M4.96423 8C4.96423 7.58579 5.30002 7.25 5.71423 7.25H10.2857C10.6999 7.25 11.0357 7.58579 11.0357 8C11.0357 8.41421 10.6999 8.75 10.2857 8.75H5.71423C5.30002 8.75 4.96423 8.41421 4.96423 8Z"/>
        <path id="Vector"
              d="M7.94017 16C7.82051 16 7.5812 16 7.46154 15.8831L2.67521 13.078C1.59829 12.3767 1 11.3248 1 10.156V2.09137C1 1.74073 1.23932 1.39009 1.47863 1.27321C1.71795 1.15633 2.19658 1.15633 2.4359 1.27321C3.99145 1.97449 6.50427 0.688815 7.46154 0.221298C7.82051 -0.12934 8.29915 -0.0124604 8.65812 0.221298C8.77778 0.338177 10.6923 2.20825 13.6838 1.15633C14.0427 1.03945 14.2821 1.15633 14.641 1.27321C14.8803 1.50697 15 1.74073 15 2.09137V10.156C15 11.3248 14.4017 12.3767 13.3248 12.9611L8.53846 15.7662C8.29915 15.8831 8.17949 16 7.94017 16ZM3.03419 3.37704V10.156C3.03419 10.6236 3.2735 11.0911 3.75214 11.3248L8.05983 13.8962L12.3675 11.3248C12.7265 11.0911 13.0855 10.6236 13.0855 10.156V3.37704C10.6923 3.72768 8.89744 2.79264 8.05983 2.20825C6.86325 2.67576 4.94872 3.6108 3.03419 3.37704Z"/>
        <path id="Vector (Stroke)_2" fill-rule="evenodd" clip-rule="evenodd"
              d="M8 4.96423C8.41421 4.96423 8.75 5.30002 8.75 5.71423V10.2857C8.75 10.6999 8.41421 11.0357 8 11.0357C7.58579 11.0357 7.25 10.6999 7.25 10.2857V5.71423C7.25 5.30002 7.58579 4.96423 8 4.96423Z"/>
    </g>
</svg>
