<svg width="16" height="16" viewBox="0 0 16 16" xmlns="http://www.w3.org/2000/svg">
    <g id="icon-&#229;&#133;&#168;&#233;&#131;&#168;&#228;&#186;&#186;&#229;&#145;&#152;">
        <path id="Rectangle 913" d="M0 0H16V16H0V0Z" fill-opacity="0.01"/>
        <path id="Vector (Stroke)" fill-rule="evenodd" clip-rule="evenodd"
              d="M8 1.75C6.75736 1.75 5.75 2.75736 5.75 4C5.75 5.24264 6.75736 6.25 8 6.25C9.24264 6.25 10.25 5.24264 10.25 4C10.25 2.75736 9.24264 1.75 8 1.75ZM4.25 4C4.25 1.92893 5.92893 0.25 8 0.25C10.0711 0.25 11.75 1.92893 11.75 4C11.75 6.07107 10.0711 7.75 8 7.75C5.92893 7.75 4.25 6.07107 4.25 4Z"/>
        <path id="Vector (Stroke)_2" fill-rule="evenodd" clip-rule="evenodd"
              d="M4.32603 9.23659C3.4717 10.1631 2.94159 11.4944 2.79279 13.0715C2.78885 13.1133 2.80118 13.1499 2.83432 13.184C2.87036 13.2211 2.92836 13.25 2.99993 13.25H12.9999C13.0715 13.25 13.1295 13.2211 13.1656 13.184C13.1987 13.1499 13.211 13.1133 13.2071 13.0715C13.0583 11.4944 12.5282 10.1631 11.6738 9.23659C10.8332 8.32488 9.62966 7.75 7.99993 7.75C6.37021 7.75 5.16671 8.32488 4.32603 9.23659ZM3.22328 8.21976C4.36721 6.97918 5.98056 6.25 7.99993 6.25C10.0193 6.25 11.6327 6.97918 12.7766 8.21976C13.9069 9.44554 14.5291 11.1148 14.7004 12.9306C14.7983 13.9682 13.9449 14.75 12.9999 14.75H2.99993C2.05496 14.75 1.20153 13.9682 1.29943 12.9306C1.47074 11.1148 2.09301 9.44554 3.22328 8.21976Z"/>
    </g>
</svg>
